HIERARCHY
ROOT hip
{
  OFFSET 0 0 0
  CHANNELS 6 Xposition Yposition Zposition Zrotation Yrotation Xrotation
  JOINT abdomen
  {
    OFFSET 0 20.6881 -0.73152
    CHANNELS 3 Zrotation Xrotation Yrotation
    JOINT chest
    {
      OFFSET 0 11.7043 -0.48768
      CHANNELS 3 Zrotation Xrotation Yrotation
      JOINT neck
      {
        OFFSET 0 22.1894 -2.19456
        CHANNELS 3 Zrotation Xrotation Yrotation
        JOINT head
        {
          OFFSET -0.24384 7.07133 1.2192
          CHANNELS 3 Zrotation Xrotation Yrotation
          JOINT leftEye
          {
            OFFSET 4.14528 8.04674 8.04672
            CHANNELS 3 Zrotation Xrotation Yrotation
            End Site
            {
              OFFSET 1 0 0
            }
          }
          JOINT rightEye
          {
            OFFSET -3.6576 8.04674 8.04672
            CHANNELS 3 Zrotation Xrotation Yrotation
            End Site
            {
              OFFSET 1 0 0
            }
          }
        }
      }
      JOINT rCollar
      {
        OFFSET -2.68224 19.2634 -4.8768
        CHANNELS 3 Zrotation Xrotation Yrotation
        JOINT rShldr
        {
          OFFSET -8.77824 -1.95073 1.46304
          CHANNELS 3 Zrotation Xrotation Yrotation
          JOINT rForeArm
          {
            OFFSET -28.1742 -1.7115 0.48768
            CHANNELS 3 Zrotation Xrotation Yrotation
            JOINT rHand
            {
              OFFSET -22.5879 0.773209 7.07136
              CHANNELS 3 Zrotation Xrotation Yrotation
              JOINT rThumb1
              {
                OFFSET -1.2192 -0.487915 3.41376
                CHANNELS 3 Zrotation Xrotation Yrotation
                JOINT rThumb2
                {
                  OFFSET -3.37035 -0.52449 3.41376
                  CHANNELS 3 Zrotation Xrotation Yrotation
                  End Site
                  {
                    OFFSET -1.78271 -1.18214 1.43049
                  }
                }
              }
              JOINT rIndex1
              {
                OFFSET -7.75947 0.938293 5.60832
                CHANNELS 3 Zrotation Xrotation Yrotation
                JOINT rIndex2
                {
                  OFFSET -2.54057 -0.884171 1.56538
                  CHANNELS 3 Zrotation Xrotation Yrotation
                  End Site
                  {
                    OFFSET -1.62519 -0.234802 1.16502
                  }
                }
              }
              JOINT rMid1
              {
                OFFSET -8.24714 1.18213 3.41376
                CHANNELS 3 Zrotation Xrotation Yrotation
                JOINT rMid2
                {
                  OFFSET -3.10165 -0.590103 1.0647
                  CHANNELS 3 Zrotation Xrotation Yrotation
                  End Site
                  {
                    OFFSET -2.48547 -0.328903 0.83742
                  }
                }
              }
              JOINT rRing1
              {
                OFFSET -8.82822 0.546677 1.51678
                CHANNELS 3 Zrotation Xrotation Yrotation
                JOINT rRing2
                {
                  OFFSET -2.60934 -0.819778 -0.0198488
                  CHANNELS 3 Zrotation Xrotation Yrotation
                  End Site
                  {
                    OFFSET -2.33842 -0.294052 0.168128
                  }
                }
              }
              JOINT rPinky1
              {
                OFFSET -8.27202 -0.0477905 -0.4584
                CHANNELS 3 Zrotation Xrotation Yrotation
                JOINT rPinky2
                {
                  OFFSET -1.82734 -0.647385 -0.700984
                  CHANNELS 3 Zrotation Xrotation Yrotation
                  End Site
                  {
                    OFFSET -1.69225 -0.51767 -0.607171
                  }
                }
              }
            }
          }
        }
      }
      JOINT lCollar
      {
        OFFSET 2.68224 19.2634 -4.8768
        CHANNELS 3 Zrotation Xrotation Yrotation
        JOINT lShldr
        {
          OFFSET 8.77824 -1.95073 1.46304
          CHANNELS 3 Zrotation Xrotation Yrotation
          JOINT lForeArm
          {
            OFFSET 28.1742 -1.7115 0.48768
            CHANNELS 3 Zrotation Xrotation Yrotation
            JOINT lHand
            {
              OFFSET 22.5879 0.773209 7.07136
              CHANNELS 3 Zrotation Xrotation Yrotation
              JOINT lThumb1
              {
                OFFSET 1.2192 -0.487915 3.41376
                CHANNELS 3 Zrotation Xrotation Yrotation
                JOINT lThumb2
                {
                  OFFSET 3.37035 -0.52449 3.41376
                  CHANNELS 3 Zrotation Xrotation Yrotation
                  End Site
                  {
                    OFFSET 1.78271 -1.18214 1.43049
                  }
                }
              }
              JOINT lIndex1
              {
                OFFSET 7.75947 0.938293 5.60832
                CHANNELS 3 Zrotation Xrotation Yrotation
                JOINT lIndex2
                {
                  OFFSET 2.54057 -0.884171 1.56538
                  CHANNELS 3 Zrotation Xrotation Yrotation
                  End Site
                  {
                    OFFSET 1.62519 -0.234802 1.16502
                  }
                }
              }
              JOINT lMid1
              {
                OFFSET 8.24714 1.18213 3.41376
                CHANNELS 3 Zrotation Xrotation Yrotation
                JOINT lMid2
                {
                  OFFSET 3.10165 -0.590103 1.0647
                  CHANNELS 3 Zrotation Xrotation Yrotation
                  End Site
                  {
                    OFFSET 2.48547 -0.328903 0.83742
                  }
                }
              }
              JOINT lRing1
              {
                OFFSET 8.82822 0.546677 1.51678
                CHANNELS 3 Zrotation Xrotation Yrotation
                JOINT lRing2
                {
                  OFFSET 2.60934 -0.819778 -0.0198488
                  CHANNELS 3 Zrotation Xrotation Yrotation
                  End Site
                  {
                    OFFSET 2.33842 -0.294052 0.168128
                  }
                }
              }
              JOINT lPinky1
              {
                OFFSET 8.27202 -0.0477905 -0.4584
                CHANNELS 3 Zrotation Xrotation Yrotation
                JOINT lPinky2
                {
                  OFFSET 1.82734 -0.647385 -0.700984
                  CHANNELS 3 Zrotation Xrotation Yrotation
                  End Site
                  {
                    OFFSET 1.69225 -0.51767 -0.607171
                  }
                }
              }
            }
          }
        }
      }
    }
  }
  JOINT rButtock
  {
    OFFSET -8.77824 4.35084 1.2192
    CHANNELS 3 Zrotation Xrotation Yrotation
    JOINT rThigh
    {
      OFFSET 0 -1.70687 -2.19456
      CHANNELS 3 Zrotation Xrotation Yrotation
      JOINT rShin
      {
        OFFSET 0 -36.8199 0.73152
        CHANNELS 3 Zrotation Xrotation Yrotation
        JOINT rFoot
        {
          OFFSET 0.73152 -45.1104 -5.12064
          CHANNELS 3 Zrotation Xrotation Yrotation
          End Site
          {
            OFFSET -1.1221 -3.69964 12.103
          }
        }
      }
    }
  }
  JOINT lButtock
  {
    OFFSET 8.77824 4.35084 1.2192
    CHANNELS 3 Zrotation Xrotation Yrotation
    JOINT lThigh
    {
      OFFSET 0 -1.70687 -2.19456
      CHANNELS 3 Zrotation Xrotation Yrotation
      JOINT lShin
      {
        OFFSET 0 -36.8199 0.73152
        CHANNELS 3 Zrotation Xrotation Yrotation
        JOINT lFoot
        {
          OFFSET -0.73152 -45.1104 -5.12064
          CHANNELS 3 Zrotation Xrotation Yrotation
          End Site
          {
            OFFSET 1.1221 -3.69964 12.103
          }
        }
      }
    }
  }
}
MOTION
Frames:	4
Frame Time:	0.00833333
209.056 95.3653 -6.90197 321.467 80.3845 313.763 8.45458 10.7127 13.9363 -3.8529 -5.43831 4.08226 2.3921 -13.3539 -1.04373 -0.435045 7.36345 -3.08605 -0.0 0.0 0.0 -0.0 0.0 0.0 -1.52056e-13 -2.17784e-12 -4.50399e-13 72.0666 46.8792 -0.334652 -27.4143 -42.7917 89.0893 -0.707442 -23.1771 -3.44949 -3.77569e-10 -2.36339e-09 -1.80971e-09 -6.17122e-10 -4.09905e-09 -3.13313e-09 -3.77561e-10 -2.36338e-09 -1.80971e-09 7.73091 5.47488 0.417314 -3.77573e-10 -2.36338e-09 -1.80969e-09 2.90554 0.965183 0.102902 -3.7756e-10 -2.36339e-09 -1.80971e-09 10.2786 0.731801 0.0259123 -3.77572e-10 -2.36339e-09 -1.80971e-09 2.22167 -0.733487 -0.20892 -1.52136e-13 -2.17784e-12 -4.5066e-13 -119.412 39.3117 78.6103 28.4307 -36.1854 -77.3087 1.35229 -31.074 4.85878 1.19694e-09 -5.25105e-10 1.73448e-10 2.06546e-09 -9.03854e-10 3.26511e-10 1.19693e-09 -5.25103e-10 1.73464e-10 -7.73091 5.47488 -0.417314 1.19694e-09 -5.25105e-10 1.73453e-10 -2.90554 0.965183 -0.102902 1.19693e-09 -5.25105e-10 1.73452e-10 -10.2786 0.731801 -0.0259123 1.19695e-09 -5.25103e-10 1.73448e-10 -2.22167 -0.733487 0.20892 -2.03217e-16 0.0 -3.88251e-19 7.20778 11.581 1.08995 -0.140084 31.7685 0.710734 -0.659481 -3.71194 -0.0289303 2.03217e-16 0.0 3.88251e-19 14.5793 -13.157 7.60134 0.0442588 14.7574 -0.288634 1.97785 -6.34462 7.89047
210.684 95.5093 -6.9743 320.979 80.357 313.602 7.64603 9.58963 13.9495 -3.79838 -5.00887 4.03155 2.30307 -13.5315 -1.14324 -0.0596458 7.81969 -3.25742 -0.0 0.0 0.0 -0.0 0.0 0.0 -2.25417e-13 -3.04792e-12 -4.08552e-13 72.0362 47.2818 -0.553224 -27.2685 -43.2523 89.9765 -0.741858 -23.6925 -3.53574 -8.35898e-10 -3.69162e-09 -3.37217e-09 -1.38534e-09 -6.40382e-09 -5.83961e-09 -8.35889e-10 -3.6916e-09 -3.37217e-09 7.73091 5.47488 0.417314 -8.35902e-10 -3.69161e-09 -3.37215e-09 2.90554 0.965183 0.102902 -8.35888e-10 -3.69162e-09 -3.37217e-09 10.2786 0.731801 0.0259123 -8.359e-10 -3.69162e-09 -3.37217e-09 2.22167 -0.733487 -0.20892 -2.25491e-13 -3.04792e-12 -4.0885e-13 -119.109 38.6505 79.1861 28.4202 -36.5146 -77.8743 1.32194 -30.7742 4.80089 1.27102e-09 -4.04668e-10 -6.24305e-10 2.21171e-09 -6.93813e-10 -1.04773e-09 1.27102e-09 -4.04666e-10 -6.24289e-10 -7.73091 5.47488 -0.417314 1.27102e-09 -4.04668e-10 -6.24298e-10 -2.90554 0.965183 -0.102902 1.27101e-09 -4.04669e-10 -6.24299e-10 -10.2786 0.731801 -0.0259123 1.27103e-09 -4.04666e-10 -6.24302e-10 -2.22167 -0.733487 0.20892 -2.03217e-16 0.0 -3.88251e-19 6.27296 11.6822 0.771403 -0.169295 32.7065 0.686412 -0.720055 -3.9292 -0.418296 2.03217e-16 0.0 3.88251e-19 13.4918 -12.5212 7.00915 0.0272993 10.919 -0.203216 1.99954 -7.26785 7.67034
212.273 95.5279 -7.01 318.714 80.18 311.808 7.15922 8.6338 13.9354 -3.72893 -4.72154 3.98865 2.23133 -13.8235 -1.22962 0.142154 8.29989 -3.4105 -0.0 0.0 0.0 -0.0 0.0 0.0 -2.12604e-13 -2.82074e-12 -3.6207e-13 72.0422 47.6704 -0.833922 -27.1055 -43.737 90.9121 -0.778561 -24.2318 -3.62657 -3.55068e-10 -2.1503e-09 -1.71466e-09 -5.87248e-10 -3.72705e-09 -2.96605e-09 -3.5506e-10 -2.15029e-09 -1.71465e-09 7.73091 5.47488 0.417314 -3.55072e-10 -2.15029e-09 -1.71463e-09 2.90554 0.965183 0.102902 -3.55059e-10 -2.1503e-09 -1.71465e-09 10.2786 0.731801 0.0259123 -3.55072e-10 -2.1503e-09 -1.71465e-09 2.22167 -0.733487 -0.20892 -2.12661e-13 -2.82074e-12 -3.62393e-13 -118.809 38.0689 79.5917 28.4085 -36.7998 -78.3636 1.27558 -30.3009 4.71057 1.28361e-09 -4.70458e-10 3.09424e-10 2.2169e-09 -8.08074e-10 5.61707e-10 1.2836e-09 -4.70456e-10 3.09438e-10 -7.73091 5.47488 -0.417314 1.28361e-09 -4.70457e-10 3.09431e-10 -2.90554 0.965183 -0.102902 1.2836e-09 -4.70458e-10 3.09429e-10 -10.2786 0.731801 -0.0259123 1.28361e-09 -4.70455e-10 3.09426e-10 -2.22167 -0.733487 0.20892 -2.03217e-16 0.0 -3.88251e-19 5.79001 11.3204 0.571295 -0.206394 34.1785 0.672563 -0.805266 -4.13432 -0.922475 2.03217e-16 0.0 3.88251e-19 12.9347 -12.3127 6.33279 0.0182766 7.90639 -0.119797 2.07029 -8.08289 7.72513
213.855 95.4338 -7.00926 316.95 79.8644 310.4 6.7977 7.74885 13.8886 -3.61967 -4.49056 3.94628 2.16604 -14.1998 -1.30752 0.220402 8.78154 -3.55112 -0.0 0.0 0.0 -0.0 0.0 0.0 -1.51141e-13 -1.94957e-12 -3.04554e-13 72.084 48.0456 -1.17812 -26.9185 -44.2431 91.912 -0.817711 -24.791 -3.72156 7.16211e-10 1.22926e-09 2.04251e-09 1.19412e-09 2.14108e-09 3.54586e-09 7.16219e-10 1.22927e-09 2.04251e-09 7.73091 5.47488 0.417314 7.16207e-10 1.22927e-09 2.04252e-09 2.90554 0.965183 0.102902 7.16219e-10 1.22926e-09 2.04251e-09 10.2786 0.731801 0.0259123 7.16207e-10 1.22927e-09 2.04252e-09 2.22167 -0.733487 -0.20892 -1.51174e-13 -1.94957e-12 -3.04895e-13 -118.497 37.5688 79.8527 28.3973 -37.0563 -78.795 1.21636 -29.6681 4.59171 1.24526e-09 -6.47124e-10 2.33976e-09 2.11226e-09 -1.11553e-09 4.06053e-09 1.24525e-09 -6.47123e-10 2.33977e-09 -7.73091 5.47488 -0.417314 1.24526e-09 -6.47124e-10 2.33977e-09 -2.90554 0.965183 -0.102902 1.24525e-09 -6.47124e-10 2.33976e-09 -10.2786 0.731801 -0.0259123 1.24526e-09 -6.47121e-10 2.33976e-09 -2.22167 -0.733487 0.20892 -2.03217e-16 0.0 -3.88251e-19 5.51403 10.6032 0.401069 -0.25031 36.106 0.66632 -0.912216 -4.39881 -1.50667 2.03217e-16 0.0 3.88251e-19 12.6126 -12.4011 5.56989 0.0134007 5.52149 -0.0355599 2.17416 -8.87587 7.90766
